<?xml version="1.0" encoding="UTF-8"?>
<svg width="205px" height="56px" viewBox="0 0 205 56" version="1.1" xmlns="http://www.w3.org/2000/svg" xmlns:xlink="http://www.w3.org/1999/xlink">
    <title>公司logo英文</title>
    <defs>
        <rect id="path-1" x="0" y="0" width="205" height="55.8333333"></rect>
        <path d="M92.4391351,0 C77.6527943,0.00399456433 65.6595758,11.9855366 65.646363,26.7755647 L65.646363,26.7755647 L65.646363,27.5056482 C65.646363,30.3491634 67.9515339,32.6543343 70.7944346,32.6543343 L70.7944346,32.6543343 C73.6379498,32.6543343 75.9431207,30.3491634 75.9431207,27.5056482 L75.9431207,27.5056482 L75.9431207,26.7755647 C75.9302152,22.4024386 77.6712307,18.2059951 80.7774654,15.1268006 L80.7774654,15.1268006 C83.8941474,12.0141131 88.1240838,10.2737122 92.5288591,10.2930705 L92.5288591,10.2930705 L93.0736563,10.2930705 C101.811919,10.3029032 108.89336,17.3834222 108.903807,26.1219925 L108.903807,26.1219925 L108.903807,28.6997156 L108.903807,28.7003302 C108.903807,37.8011768 101.525847,45.1791372 92.4250005,45.1791372 L92.4250005,45.1791372 L74.1845906,45.1791372 C65.2837795,45.1689971 58.0711326,37.9566576 58.0609926,29.0561537 L58.0609926,29.0561537 L58.0609926,8.11326744 C58.0609926,6.30526616 57.3401274,4.57193252 56.0575649,3.29766649 L56.0575649,3.29766649 C53.3984142,0.655108551 49.100263,0.668628615 46.457705,3.32777936 L46.457705,3.32777936 L33.6456008,16.2194676 C33.6360753,16.2289931 33.6268571,16.2382113 33.6179462,16.2471222 L33.6179462,16.2471222 C31.0687996,18.7809051 26.9482528,18.7689214 24.4144699,16.2194676 L24.4144699,16.2194676 L11.602673,3.3333103 C10.328407,2.05136242 8.59538062,1.33018992 6.78768663,1.33018992 L6.78768663,1.33018992 C3.03832709,1.33080447 0,4.37036066 0,8.11941292 L0,8.11941292 L0,50.6907141 C0,53.5339221 2.30486362,55.8387857 5.1480716,55.8387857 L5.1480716,55.8387857 L5.14899343,55.8387857 C7.99250868,55.8375566 10.297065,53.5320785 10.2961432,50.6885632 L10.2961432,50.6885632 L10.2961432,16.6213822 L17.1111772,23.4772837 C17.1354519,23.5015583 17.1597266,23.525833 17.1840012,23.5504149 L17.1840012,23.5504149 C23.7661214,30.0919749 34.4051826,30.0594039 40.9470499,23.4772837 L40.9470499,23.4772837 L47.763313,16.6186167 L47.763313,29.0583046 C47.7799058,43.6427663 59.5988999,55.461453 74.1830542,55.4780458 L74.1830542,55.4780458 L92.4237714,55.4780458 C107.211649,55.4780458 119.199643,43.4897437 119.199643,28.7021738 L119.199643,28.7021738 L119.199643,26.1241435 C119.181821,11.7028444 107.494955,0.0165928057 93.073349,0 L93.073349,0 L92.4391351,0 Z" id="path-3"></path>
        <path d="M6.47457424,0.658795841 L0,7.16194658 L0,15.8049547 L10.2955287,15.8049547 L10.2955287,2.23572693 C10.2955287,1.64115139 10.058313,1.07085052 9.63673282,0.651113986 L9.63673282,0.651113986 C9.20040348,0.216935571 8.62979533,0 8.05949445,0 L8.05949445,0 C7.48550629,0 6.91151812,0.219701038 6.47457424,0.658795841" id="path-5"></path>
        <path d="M0.658488567,0.651113986 C0.237215667,1.07085052 3.05695993e-16,1.64115139 3.05695993e-16,2.23572693 L3.05695993e-16,2.23572693 L3.05695993e-16,15.8049547 L10.2967578,15.8049547 L10.2952214,7.16194658 L3.82095442,0.658795841 C3.38401054,0.219701038 2.81002237,0 2.2360342,0 L2.2360342,0 C1.66573333,0 1.09512518,0.216935571 0.658488567,0.651113986" id="path-7"></path>
    </defs>
    <g id="官网V0.3" stroke="none" stroke-width="1" fill="none" fill-rule="evenodd">
        <g id="公司页-英文" transform="translate(-120.000000, -4618.000000)">
            <g id="尾部" transform="translate(0.000000, 4532.000000)">
                <g id="公司-logo" transform="translate(120.000000, 86.000000)">
                    <mask id="mask-2" fill="white">
                        <use xlink:href="#path-1"></use>
                    </mask>
                    <g id="蒙版"></g>
                    <g id="编组" mask="url(#mask-2)">
                        <g transform="translate(-0.000000, 0.377911)">
                            <g>
                                <mask id="mask-4" fill="white">
                                    <use xlink:href="#path-3"></use>
                                </mask>
                                <g id="Clip-2"></g>
                                <path d="M92.4391351,0 C77.6527943,0.00399456433 65.6595758,11.9855366 65.646363,26.7755647 L65.646363,26.7755647 L65.646363,27.5056482 C65.646363,30.3491634 67.9515339,32.6543343 70.7944346,32.6543343 L70.7944346,32.6543343 C73.6379498,32.6543343 75.9431207,30.3491634 75.9431207,27.5056482 L75.9431207,27.5056482 L75.9431207,26.7755647 C75.9302152,22.4024386 77.6712307,18.2059951 80.7774654,15.1268006 L80.7774654,15.1268006 C83.8941474,12.0141131 88.1240838,10.2737122 92.5288591,10.2930705 L92.5288591,10.2930705 L93.0736563,10.2930705 C101.811919,10.3029032 108.89336,17.3834222 108.903807,26.1219925 L108.903807,26.1219925 L108.903807,28.6997156 L108.903807,28.7003302 C108.903807,37.8011768 101.525847,45.1791372 92.4250005,45.1791372 L92.4250005,45.1791372 L74.1845906,45.1791372 C65.2837795,45.1689971 58.0711326,37.9566576 58.0609926,29.0561537 L58.0609926,29.0561537 L58.0609926,8.11326744 C58.0609926,6.30526616 57.3401274,4.57193252 56.0575649,3.29766649 L56.0575649,3.29766649 C53.3984142,0.655108551 49.100263,0.668628615 46.457705,3.32777936 L46.457705,3.32777936 L33.6456008,16.2194676 C33.6360753,16.2289931 33.6268571,16.2382113 33.6179462,16.2471222 L33.6179462,16.2471222 C31.0687996,18.7809051 26.9482528,18.7689214 24.4144699,16.2194676 L24.4144699,16.2194676 L11.602673,3.3333103 C10.328407,2.05136242 8.59538062,1.33018992 6.78768663,1.33018992 L6.78768663,1.33018992 C3.03832709,1.33080447 0,4.37036066 0,8.11941292 L0,8.11941292 L0,50.6907141 C0,53.5339221 2.30486362,55.8387857 5.1480716,55.8387857 L5.1480716,55.8387857 L5.14899343,55.8387857 C7.99250868,55.8375566 10.297065,53.5320785 10.2961432,50.6885632 L10.2961432,50.6885632 L10.2961432,16.6213822 L17.1111772,23.4772837 C17.1354519,23.5015583 17.1597266,23.525833 17.1840012,23.5504149 L17.1840012,23.5504149 C23.7661214,30.0919749 34.4051826,30.0594039 40.9470499,23.4772837 L40.9470499,23.4772837 L47.763313,16.6186167 L47.763313,29.0583046 C47.7799058,43.6427663 59.5988999,55.461453 74.1830542,55.4780458 L74.1830542,55.4780458 L92.4237714,55.4780458 C107.211649,55.4780458 119.199643,43.4897437 119.199643,28.7021738 L119.199643,28.7021738 L119.199643,26.1241435 C119.181821,11.7028444 107.494955,0.0165928057 93.073349,0 L93.073349,0 L92.4391351,0 Z" id="Fill-1" fill="#47516A" mask="url(#mask-4)"></path>
                            </g>
                            <g transform="translate(47.763928, 9.456670)">
                                <mask id="mask-6" fill="white">
                                    <use xlink:href="#path-5"></use>
                                </mask>
                                <g id="Clip-4"></g>
                            </g>
                            <g transform="translate(0.001536, 9.456670)">
                                <mask id="mask-8" fill="white">
                                    <use xlink:href="#path-7"></use>
                                </mask>
                                <g id="Clip-6"></g>
                            </g>
                            <g transform="translate(18.807638, 7.301388)">
                                <path d="M4.03573907,26.5602884 C1.8064649,26.5602884 0,28.9991236 0,32.0076451 C0,35.0161666 1.80707945,37.4550017 4.03573907,37.4550017 C6.2643987,37.4550017 8.0720927,35.0149375 8.0720927,32.0076451 C8.0720927,29.0000454 6.26716417,26.5602884 4.03573907,26.5602884" id="Fill-7" fill="#47516A"></path>
                                <path d="M18.0560146,26.6687562 C15.8267404,26.6687562 14.0193537,29.1078987 14.0193537,32.1161129 C14.0193537,35.1243271 15.8267404,37.5634695 18.0560146,37.5634695 C20.2852888,37.5634695 22.0923682,35.1243271 22.0923682,32.1161129 C22.0923682,29.1078987 20.2859033,26.6687562 18.0560146,26.6687562" id="Fill-9" fill="#47516A"></path>
                                <path d="M131.638686,12.7565183 C130.428026,12.7857093 129.422932,11.8276284 129.393741,10.6169682 C129.393433,10.6012972 129.393433,10.5859335 129.393433,10.5705698 C129.393126,9.35376403 130.379476,8.36679936 131.596282,8.36679936 C131.610417,8.36679936 131.624551,8.36679936 131.638686,8.36710664 C132.848732,8.34867018 133.844607,9.31474021 133.863044,10.5247859 C133.86336,10.5401496 133.86336,10.5552061 133.86336,10.5705698 C133.866731,11.7763137 132.892365,12.7565183 131.686928,12.7598983 C131.670335,12.7598983 131.653742,12.7598983 131.63715,12.759591 L131.638686,12.7565183 Z M133.841842,5.9553116 C133.176286,5.5149877 132.395195,5.28115205 131.596589,5.28361024 C128.707905,5.25257555 126.340972,7.56880832 126.309937,10.4574929 C126.309707,10.4952876 126.309707,10.5327751 126.309937,10.5705698 C126.318848,13.483529 128.68363,15.8397074 131.596589,15.8375757 C132.394888,15.8400147 133.176286,15.606179 133.841842,15.1658551 L133.841842,15.6977467 L136.923802,15.6977467 L136.923802,5.41973271 L133.841842,5.41973271 L133.841842,5.9553116 Z" id="Fill-11" fill="#47516A"></path>
                                <polygon id="Fill-13" fill="#47516A" points="143.253128 1.89268604 140.171475 1.89268604 140.171475 5.44170281 138.475629 5.44170281 138.475629 8.405055 140.171475 8.405055 140.171475 15.6994367 143.253128 15.6994367 143.253128 8.405055 144.948359 8.405055 144.948359 5.44170281 143.253128 5.44170281"></polygon>
                                <path d="M151.433104,5.2836717 C150.714697,5.27506802 150.019028,5.53655835 149.484371,6.01621334 L149.484371,5.4419179 L146.402411,5.4419179 L146.402411,15.6993446 L149.484371,15.6993446 L149.484371,10.1161727 C149.432135,9.22046849 150.116127,8.45228304 151.011524,8.4003537 C151.092644,8.39543732 151.174072,8.39666641 151.254578,8.40434827 C151.61286,8.41233739 151.962538,8.51588879 152.267354,8.70363332 L152.528229,8.85573404 L153.69372,5.92802565 L153.480165,5.82140151 C152.853326,5.47448896 152.149668,5.28981718 151.433104,5.2836717" id="Fill-15" fill="#47516A"></path>
                                <polygon id="Fill-17" fill="#47516A" points="154.762021 15.6993138 157.843673 15.6993138 157.843673 5.4212998 154.762021 5.4212998"></polygon>
                                <polygon id="Fill-19" fill="#47516A" points="169.597249 5.42200653 165.909958 5.42200653 164.168328 7.85869078 162.410106 5.42200653 158.743403 5.42200653 162.374769 10.6094092 158.758767 15.7000206 162.489382 15.7000206 164.168328 13.3628932 165.830067 15.7000206 169.603394 15.7000206 165.96619 10.6094092"></polygon>
                                <polygon id="Fill-20" fill="#47516A" points="121.029922 0 115.998307 7.1247664 110.948563 0 107.735397 0 107.735397 15.6998669 111.014627 15.6998669 111.014627 5.70915426 114.813765 11.0803069 117.192068 11.0803069 120.983524 5.76139087 120.983524 15.6983306 124.262754 15.6983306 124.262754 0"></polygon>
                                <polygon id="Fill-21" fill="#47516A" points="154.762021 4.12675369 157.843673 4.12675369 157.843673 1.04479367 154.762021 1.04479367"></polygon>
                                <path d="M131.986336,27.1655264 C131.227369,27.1566154 130.492983,27.4328549 129.927906,27.93955 L129.927906,27.3323763 L126.671107,27.3323763 L126.671107,38.1702439 L129.927906,38.1702439 L129.927906,32.2715014 C129.872904,31.325097 130.595613,30.5132786 131.54171,30.4582765 C131.627747,30.4530528 131.713477,30.4545892 131.799206,30.4625783 C132.177153,30.471182 132.545575,30.5805716 132.866984,30.7790707 L133.143223,30.9394679 L134.375393,27.8461387 L134.149853,27.7339836 C133.48737,27.366791 132.74346,27.1716719 131.986336,27.1655264" id="Fill-22" fill="#47516A"></path>
                                <polygon id="Fill-23" fill="#47516A" points="135.504226 38.1705819 138.76041 38.1705819 138.76041 27.3108978 135.504226 27.3108978"></polygon>
                                <path d="M146.465864,35.0811551 C145.186067,35.0528858 144.161922,34.0106118 144.156083,32.7305076 C144.146558,31.4445652 145.179614,30.3927656 146.465864,30.3798601 C147.774237,30.3798601 148.84478,31.4224414 148.879195,32.7305076 C148.844473,34.0385738 147.774237,35.0808478 146.465864,35.0811551 L146.465864,35.0811551 Z M148.857378,27.8758828 C148.147575,27.4088261 147.315477,27.1617776 146.465864,27.1654649 C143.425078,27.1328939 140.933392,29.571729 140.900821,32.6128216 C140.900514,32.6521527 140.900514,32.6914838 140.900821,32.7305076 C140.862412,35.7768238 143.300325,38.2777284 146.346641,38.3164449 C146.386279,38.3167522 146.426225,38.3170595 146.465864,38.3164449 C147.315477,38.3204395 148.147268,38.073391 148.857378,37.6069488 L148.857378,38.1262422 C148.863217,38.8136145 148.591279,39.4739467 148.10302,39.9575963 C147.682977,40.3668855 147.124967,40.6041012 146.538995,40.6222304 C145.380878,40.7377654 144.244886,40.2488922 143.532317,39.3289133 L140.900821,41.2220296 C140.900821,41.2220296 142.42613,43.7324596 146.444969,43.7324596 C149.447345,43.8375474 151.966686,41.4887435 152.072081,38.4863675 C152.076075,38.3659161 152.076383,38.2457718 152.072695,38.1256276 L152.072695,27.3108056 L148.861373,27.3108056 L148.857378,27.8758828 Z" id="Fill-24" fill="#47516A"></path>
                                <polygon id="Fill-25" fill="#47516A" points="154.212922 38.1705819 157.469106 38.1705819 157.469106 27.3108978 154.212922 27.3108978"></polygon>
                                <path d="M165.570267,27.1655264 C164.754454,27.1719791 163.958614,27.4177985 163.282303,27.8734861 L163.282303,27.3117889 L160.026119,27.3117889 L160.026119,38.1711657 L163.282303,38.1711657 L163.282303,32.084986 C163.237749,31.1305924 163.975207,30.3209249 164.929907,30.2763702 C164.983373,30.273912 165.037146,30.2736047 165.090919,30.2763702 C166.068973,30.2437991 166.888166,31.0104482 166.92043,31.9881946 C166.921966,32.0275257 166.921966,32.0668568 166.92043,32.1058806 L166.92043,38.1711657 L170.176614,38.1711657 L170.176614,32.043504 C170.176921,29.034368 168.411631,27.1655264 165.570267,27.1655264" id="Fill-26" fill="#47516A"></path>
                                <polygon id="Fill-27" fill="#47516A" points="135.504226 25.9429132 138.76041 25.9429132 138.76041 22.6867287 135.504226 22.6867287"></polygon>
                                <polygon id="Fill-28" fill="#47516A" points="154.212922 25.9429132 157.469106 25.9429132 157.469106 22.6867287 154.212922 22.6867287"></polygon>
                                <path d="M116.139807,35.6472463 C113.254195,35.6303462 110.925672,33.2824642 110.932723,30.3965451 C110.936426,27.5223024 113.265564,25.1934714 116.139807,25.1891491 C119.026033,25.1811805 121.37453,27.510626 121.390201,30.3965451 C121.388665,33.2969061 119.039861,35.6484754 116.139807,35.6546209 L116.139807,35.6472463 Z M116.146874,21.9680121 C111.491671,21.973238 107.718958,25.7459504 107.713732,30.4014615 C107.710355,35.065269 111.48276,38.852116 116.146874,38.8662506 C120.820207,38.8616415 124.607362,35.0744872 124.611971,30.4014615 C124.597836,25.7373467 120.810989,21.9646344 116.146874,21.9680121 L116.146874,21.9680121 Z" id="Fill-29" fill="#47516A"></path>
                            </g>
                        </g>
                    </g>
                </g>
            </g>
        </g>
    </g>
</svg>